<mxfile host="app.diagrams.net" agent="Mozilla/5.0 (Windows NT 10.0; Win64; x64) AppleWebKit/537.36 (KHTML, like Gecko) Chrome/130.0.0.0 Safari/537.36" version="24.8.3">
  <diagram name="Página-1" id="yP-9WfLUqRp4RTCgR7ET">
    <mxGraphModel dx="2280" dy="827" grid="1" gridSize="10" guides="1" tooltips="1" connect="1" arrows="1" fold="1" page="1" pageScale="1" pageWidth="827" pageHeight="1169" math="0" shadow="0">
      <root>
        <mxCell id="0" />
        <mxCell id="1" parent="0" />
        <mxCell id="RzhL3aESdEy2etcZcZA--21" value="&lt;p style=&quot;margin:0px;margin-top:4px;text-align:center;&quot;&gt;&lt;i&gt;Lector Datos&lt;/i&gt;&lt;/p&gt;&lt;hr size=&quot;1&quot; style=&quot;border-style:solid;&quot;&gt;&lt;p style=&quot;margin:0px;margin-left:4px;&quot;&gt;- base poblacional : dataframe&lt;br&gt;- salidas_segun_continente&lt;/p&gt;&lt;p style=&quot;margin:0px;margin-left:4px;&quot;&gt;- entradas_segun_continente&lt;/p&gt;&lt;hr size=&quot;1&quot; style=&quot;border-style:solid;&quot;&gt;&lt;p style=&quot;margin:0px;margin-left:4px;&quot;&gt;+ get salidas&lt;br&gt;+ get entradas&lt;/p&gt;&lt;p style=&quot;margin:0px;margin-left:4px;&quot;&gt;+ get poblacional&lt;/p&gt;" style="verticalAlign=top;align=left;overflow=fill;html=1;whiteSpace=wrap;" parent="1" vertex="1">
          <mxGeometry x="20" y="30" width="290" height="140" as="geometry" />
        </mxCell>
        <mxCell id="RzhL3aESdEy2etcZcZA--22" value="&lt;p style=&quot;margin:0px;margin-top:4px;text-align:center;&quot;&gt;&lt;i&gt;Reportes Graficos&lt;/i&gt;&lt;/p&gt;&lt;hr size=&quot;1&quot; style=&quot;border-style:solid;&quot;&gt;&lt;p style=&quot;margin:0px;margin-left:4px;&quot;&gt;-&lt;/p&gt;&lt;hr size=&quot;1&quot; style=&quot;border-style:solid;&quot;&gt;&lt;p style=&quot;margin:0px;margin-left:4px;&quot;&gt;+ graficador lineas tendencia&lt;br&gt;+ graficador barras laterales&lt;/p&gt;&lt;p style=&quot;margin:0px;margin-left:4px;&quot;&gt;+ graficador barras horizontales&lt;/p&gt;&lt;p style=&quot;margin:0px;margin-left:4px;&quot;&gt;&lt;br&gt;&lt;/p&gt;" style="verticalAlign=top;align=left;overflow=fill;html=1;whiteSpace=wrap;" parent="1" vertex="1">
          <mxGeometry x="-300" y="320" width="290" height="140" as="geometry" />
        </mxCell>
        <mxCell id="RzhL3aESdEy2etcZcZA--23" value="&lt;p style=&quot;margin:0px;margin-top:4px;text-align:center;&quot;&gt;&lt;i&gt;Reportes Estadisticos&lt;/i&gt;&lt;/p&gt;&lt;hr size=&quot;1&quot; style=&quot;border-style:solid;&quot;&gt;&lt;p style=&quot;margin:0px;margin-left:4px;&quot;&gt;-&amp;nbsp;&amp;nbsp;&lt;/p&gt;&lt;hr size=&quot;1&quot; style=&quot;border-style:solid;&quot;&gt;&lt;p style=&quot;margin:0px;margin-left:4px;&quot;&gt;+ Regresion Lineal&amp;nbsp;&lt;br&gt;+ Dsitribucion histogramas salida entrada continente&lt;/p&gt;&lt;p style=&quot;margin:0px;margin-left:4px;&quot;&gt;&lt;br&gt;&lt;/p&gt;" style="verticalAlign=top;align=left;overflow=fill;html=1;whiteSpace=wrap;" parent="1" vertex="1">
          <mxGeometry x="20" y="320" width="290" height="140" as="geometry" />
        </mxCell>
        <mxCell id="RzhL3aESdEy2etcZcZA--24" value="" style="endArrow=block;endSize=16;endFill=0;html=1;rounded=0;exitX=0.5;exitY=0;exitDx=0;exitDy=0;entryX=0.316;entryY=1.007;entryDx=0;entryDy=0;entryPerimeter=0;" parent="1" source="RzhL3aESdEy2etcZcZA--22" target="RzhL3aESdEy2etcZcZA--21" edge="1">
          <mxGeometry width="160" relative="1" as="geometry">
            <mxPoint x="220" y="370" as="sourcePoint" />
            <mxPoint x="290" y="300" as="targetPoint" />
          </mxGeometry>
        </mxCell>
        <mxCell id="RzhL3aESdEy2etcZcZA--25" value="" style="endArrow=block;endSize=16;endFill=0;html=1;rounded=0;exitX=0.5;exitY=0;exitDx=0;exitDy=0;entryX=0.5;entryY=1;entryDx=0;entryDy=0;" parent="1" source="RzhL3aESdEy2etcZcZA--23" target="RzhL3aESdEy2etcZcZA--21" edge="1">
          <mxGeometry width="160" relative="1" as="geometry">
            <mxPoint x="227.76000000000022" y="356.5" as="sourcePoint" />
            <mxPoint x="149.84856512141278" y="200" as="targetPoint" />
          </mxGeometry>
        </mxCell>
        <mxCell id="DhZB2jA0M1alsWQYdCQw-1" value="&lt;p style=&quot;margin:0px;margin-top:4px;text-align:center;&quot;&gt;&lt;i&gt;Menu Principal&lt;/i&gt;&lt;/p&gt;&lt;hr size=&quot;1&quot; style=&quot;border-style:solid;&quot;&gt;&lt;p style=&quot;margin:0px;margin-left:4px;&quot;&gt;-&amp;nbsp;&lt;/p&gt;&lt;hr size=&quot;1&quot; style=&quot;border-style:solid;&quot;&gt;&lt;p style=&quot;margin:0px;margin-left:4px;&quot;&gt;+ Menu Graficos&lt;/p&gt;&lt;p style=&quot;margin:0px;margin-left:4px;&quot;&gt;+ Menu Estadisticos&lt;/p&gt;&lt;p style=&quot;margin:0px;margin-left:4px;&quot;&gt;+ Menu Datos&lt;/p&gt;&lt;p style=&quot;margin:0px;margin-left:4px;&quot;&gt;&lt;br&gt;&lt;/p&gt;" style="verticalAlign=top;align=left;overflow=fill;html=1;whiteSpace=wrap;" vertex="1" parent="1">
          <mxGeometry x="20" y="610" width="290" height="140" as="geometry" />
        </mxCell>
        <mxCell id="DhZB2jA0M1alsWQYdCQw-5" value="" style="endArrow=diamondThin;endFill=1;endSize=24;html=1;rounded=0;entryX=0.5;entryY=0;entryDx=0;entryDy=0;exitX=0.5;exitY=1;exitDx=0;exitDy=0;" edge="1" parent="1" source="RzhL3aESdEy2etcZcZA--22" target="DhZB2jA0M1alsWQYdCQw-1">
          <mxGeometry width="160" relative="1" as="geometry">
            <mxPoint x="210" y="490" as="sourcePoint" />
            <mxPoint x="370" y="490" as="targetPoint" />
          </mxGeometry>
        </mxCell>
        <mxCell id="DhZB2jA0M1alsWQYdCQw-6" value="" style="endArrow=diamondThin;endFill=1;endSize=24;html=1;rounded=0;entryX=0.5;entryY=0;entryDx=0;entryDy=0;exitX=0.5;exitY=1;exitDx=0;exitDy=0;" edge="1" parent="1" source="RzhL3aESdEy2etcZcZA--23" target="DhZB2jA0M1alsWQYdCQw-1">
          <mxGeometry width="160" relative="1" as="geometry">
            <mxPoint x="560" y="500" as="sourcePoint" />
            <mxPoint x="735" y="590" as="targetPoint" />
          </mxGeometry>
        </mxCell>
        <mxCell id="DhZB2jA0M1alsWQYdCQw-7" value="&lt;p style=&quot;margin:0px;margin-top:4px;text-align:center;&quot;&gt;&lt;i&gt;Exportador de Datos&amp;nbsp;&lt;/i&gt;&lt;/p&gt;&lt;hr size=&quot;1&quot; style=&quot;border-style:solid;&quot;&gt;&lt;p style=&quot;margin:0px;margin-left:4px;&quot;&gt;&lt;span style=&quot;background-color: initial;&quot;&gt;&amp;nbsp;&amp;nbsp;&lt;/span&gt;&lt;/p&gt;&lt;hr size=&quot;1&quot; style=&quot;border-style:solid;&quot;&gt;&lt;p style=&quot;margin:0px;margin-left:4px;&quot;&gt;+ exportar salidas&lt;br&gt;+ exportar entradas&lt;/p&gt;&lt;p style=&quot;margin:0px;margin-left:4px;&quot;&gt;+ exportar base poblacional&lt;/p&gt;&lt;p style=&quot;margin:0px;margin-left:4px;&quot;&gt;+ creador filtro personalizado&lt;/p&gt;&lt;p style=&quot;margin:0px;margin-left:4px;&quot;&gt;+ exportar de acuerdo a un filtro personalizado&amp;nbsp;&lt;/p&gt;&lt;p style=&quot;margin:0px;margin-left:4px;&quot;&gt;&lt;br&gt;&lt;/p&gt;" style="verticalAlign=top;align=left;overflow=fill;html=1;whiteSpace=wrap;" vertex="1" parent="1">
          <mxGeometry x="350" y="310" width="290" height="140" as="geometry" />
        </mxCell>
        <mxCell id="DhZB2jA0M1alsWQYdCQw-9" value="" style="endArrow=block;endSize=16;endFill=0;html=1;rounded=0;exitX=0.452;exitY=-0.013;exitDx=0;exitDy=0;exitPerimeter=0;entryX=0.75;entryY=1;entryDx=0;entryDy=0;" edge="1" parent="1" source="DhZB2jA0M1alsWQYdCQw-7" target="RzhL3aESdEy2etcZcZA--21">
          <mxGeometry width="160" relative="1" as="geometry">
            <mxPoint x="528" y="320" as="sourcePoint" />
            <mxPoint x="450" y="163" as="targetPoint" />
          </mxGeometry>
        </mxCell>
        <mxCell id="DhZB2jA0M1alsWQYdCQw-10" value="" style="endArrow=diamondThin;endFill=1;endSize=24;html=1;rounded=0;exitX=0.5;exitY=1;exitDx=0;exitDy=0;entryX=0.5;entryY=0;entryDx=0;entryDy=0;" edge="1" parent="1" source="DhZB2jA0M1alsWQYdCQw-7" target="DhZB2jA0M1alsWQYdCQw-1">
          <mxGeometry width="160" relative="1" as="geometry">
            <mxPoint x="470" y="460" as="sourcePoint" />
            <mxPoint x="80" y="650" as="targetPoint" />
          </mxGeometry>
        </mxCell>
        <mxCell id="DhZB2jA0M1alsWQYdCQw-12" value="construccion comparador: &#xa;tupla_agregar = ()&#xa;                                                    1    2&#xa;dataframe_a_comparar =dataframe[columna]&#xa;                                                          4&#xa;valor_o_columna_para_comparar=  0&#xa;                                          3  &#xa;signo = match case -&gt; signo seleccion&#xa;tupla_agregar= (dataframe_a_comparar signo valor_o_columna )&#xa;                                                                        4&#xa;&#xa;con_que_comparar = case entero, case otra_columna_mismo_frame&#xa;&#xa;&#xa;            &#xa;1.Seleccion dataframe&#xa;2.Seleccion columna&#xa;3.Seleccion de comparacion |- Mayor  | |- Menor    |- Igual  |&#xa;4. con que comparar:  - dato (entero flotante )| - columna dataframe actual&#xa;5.impresion de resultado" style="text;whiteSpace=wrap;" vertex="1" parent="1">
          <mxGeometry x="800" y="225" width="500" height="330" as="geometry" />
        </mxCell>
        <mxCell id="DhZB2jA0M1alsWQYdCQw-13" value="&lt;p style=&quot;margin:0px;margin-top:4px;text-align:center;&quot;&gt;&lt;i&gt;Validadores&lt;/i&gt;&lt;/p&gt;&lt;hr size=&quot;1&quot; style=&quot;border-style:solid;&quot;&gt;&lt;p style=&quot;margin:0px;margin-left:4px;&quot;&gt;+ Valiador enteros&lt;/p&gt;&lt;p style=&quot;margin:0px;margin-left:4px;&quot;&gt;+ Validador opciones multiples&lt;/p&gt;&lt;p style=&quot;margin:0px;margin-left:4px;&quot;&gt;+ Validador flotantes&lt;/p&gt;&lt;p style=&quot;margin:0px;margin-left:4px;&quot;&gt;&lt;br&gt;&lt;/p&gt;" style="verticalAlign=top;align=left;overflow=fill;html=1;whiteSpace=wrap;" vertex="1" parent="1">
          <mxGeometry x="-413" y="610" width="290" height="140" as="geometry" />
        </mxCell>
        <mxCell id="DhZB2jA0M1alsWQYdCQw-14" value="" style="endArrow=diamondThin;endFill=0;endSize=24;html=1;rounded=0;entryX=0;entryY=0.5;entryDx=0;entryDy=0;exitX=1;exitY=0.5;exitDx=0;exitDy=0;" edge="1" parent="1" source="DhZB2jA0M1alsWQYdCQw-13" target="DhZB2jA0M1alsWQYdCQw-1">
          <mxGeometry width="160" relative="1" as="geometry">
            <mxPoint x="-110" y="689.57" as="sourcePoint" />
            <mxPoint x="50" y="689.57" as="targetPoint" />
          </mxGeometry>
        </mxCell>
      </root>
    </mxGraphModel>
  </diagram>
</mxfile>
